<svg width="23" height="24" viewBox="0 0 23 24" fill="none" xmlns="http://www.w3.org/2000/svg">
<g clip-path="url(#clip0_14_763)">
<path d="M5.1152 15.4255H2.53133C1.59952 15.4255 0.841419 16.218 0.841419 17.1922V22.9152C0.841419 23.5134 1.30701 24.0002 1.87922 24.0002H5.76722C6.33947 24.0002 6.80506 23.5134 6.80506 22.9152V17.1922C6.80506 16.218 6.047 15.4255 5.1152 15.4255Z" fill="#232536"/>
<path d="M12.6995 11.9491H10.1157C9.18386 11.9491 8.42575 12.7417 8.42575 13.7158V22.9147C8.42575 23.5129 8.89134 23.9997 9.46359 23.9997H13.3516C13.9239 23.9997 14.3894 23.5129 14.3894 22.9147V13.7158C14.3894 12.7416 13.6313 11.9491 12.6995 11.9491Z" fill="#232536"/>
<path d="M20.4253 7.98883H17.8414C16.9096 7.98883 16.1515 8.78139 16.1515 9.75551V22.9149C16.1515 23.5131 16.6171 23.9998 17.1893 23.9998H21.0773C21.6496 23.9998 22.1151 23.5131 22.1151 22.9149V9.75551C22.1152 8.78139 21.3571 7.98883 20.4253 7.98883Z" fill="#232536"/>
<path d="M18.3679 0.66822C18.0518 0.201156 17.5378 -0.0458285 16.9927 0.00648415L12.1126 0.478516C11.5676 0.531251 11.1057 0.87297 10.8769 1.39267C10.6481 1.91238 10.7002 2.50155 11.0163 2.96861L11.2887 3.37108L5.23158 7.74683L5.22539 7.75137C4.79558 8.06933 4.50997 8.54328 4.42115 9.08586C4.33232 9.62844 4.45087 10.1747 4.755 10.624C5.05913 11.0733 5.51248 11.372 6.03147 11.4649C6.14392 11.485 6.25651 11.495 6.36833 11.495C6.77115 11.495 7.16351 11.3658 7.49939 11.1184L13.5662 6.73578L13.8475 7.15114C14.1355 7.57672 14.5878 7.81986 15.0781 7.81986C15.1259 7.81986 15.1741 7.81751 15.2226 7.81287C15.7676 7.76014 16.2295 7.41837 16.4583 6.89862L18.5074 2.24416C18.7362 1.72436 18.6841 1.13524 18.3679 0.66822Z" fill="#FFD050"/>
</g>
<defs>
<clipPath id="clip0_14_763">
<rect width="22.9565" height="24" fill="white"/>
</clipPath>
</defs>
</svg>
